<svg width="24" height="24" viewBox="0 0 48 48" fill="none" xmlns="http://www.w3.org/2000/svg">
<path d="M25.44 4.06001C13.26 3.20001 3.20001 13.26 4.06001 25.44C4.78001 36.02 14.02 44 24.62 44H32C33.1 44 34 43.1 34 42C34 40.9 33.1 40 32 40H24.66C17.2 40 10.36 35.16 8.50001 27.94C5.52001 16.34 16.32 5.52001 27.92 8.52001C35.16 10.36 40 17.2 40 24.66V26.86C40 28.44 38.58 30 37 30C35.42 30 34 28.44 34 26.86V24.36C34 19.34 30.44 14.82 25.48 14.12C18.68 13.14 12.94 19.02 14.16 25.86C14.84 29.68 17.82 32.84 21.6 33.74C25.28 34.6 28.78 33.42 31.08 31.08C32.86 33.52 36.42 34.8 39.68 33.5C42.36 32.44 44 29.7 44 26.82V24.64C44 14.02 36.02 4.78001 25.44 4.06001V4.06001ZM24 30C20.68 30 18 27.32 18 24C18 20.68 20.68 18 24 18C27.32 18 30 20.68 30 24C30 27.32 27.32 30 24 30Z" fill="url(#paint0_linear_27_86)"/>
<defs>
<linearGradient id="paint0_linear_27_86" x1="24.0043" y1="4.00867" x2="24.0043" y2="44" gradientUnits="userSpaceOnUse">
<stop stop-color="#9E4CA5"/>
<stop offset="1" stop-color="#DAA3D4"/>
</linearGradient>
</defs>
</svg>
