<svg width="32" height="32" viewBox="0 0 32 32" fill="none" xmlns="http://www.w3.org/2000/svg">
<circle cx="16" cy="16" r="16" fill="#9F21AA"/>
<path d="M11.7 27L10.5 26.1L12.825 23H10.075C10.175 21.5667 10.4125 20.0958 10.7875 18.5875C11.1625 17.0792 11.6167 15.7042 12.15 14.4625C12.6833 13.2208 13.2542 12.2 13.8625 11.4C14.4708 10.6 15.05 10.2 15.6 10.2C16.0333 10.2 16.4 10.3083 16.7 10.525C17 10.7417 17.225 11.0083 17.375 11.325L18.175 12.8C18.5083 13.45 19.0958 14.0208 19.9375 14.5125C20.7792 15.0042 21.6333 15.25 22.5 15.25C22.9167 15.25 23.2708 15.3958 23.5625 15.6875C23.8542 15.9792 24 16.3333 24 16.75V27H23.25V16.75C23.25 16.55 23.175 16.375 23.025 16.225C22.875 16.075 22.7 16 22.5 16C22.3 16 22.125 16.075 21.975 16.225C21.825 16.375 21.75 16.55 21.75 16.75V17.5H21V16.575C20.2333 16.375 19.5125 16.0583 18.8375 15.625C18.1625 15.1917 17.5583 14.6083 17.025 13.875L16.1 16.75L18.75 22.625V27H17.25V23H14.7L11.7 27ZM17.175 9.1C16.675 9.1 16.2458 8.92083 15.8875 8.5625C15.5292 8.20417 15.35 7.775 15.35 7.275C15.35 7.175 15.3833 6.99167 15.45 6.725C15.2833 6.65833 15.15 6.55 15.05 6.4C14.95 6.25 14.9 6.08333 14.9 5.9C14.9 5.65 14.9875 5.4375 15.1625 5.2625C15.3375 5.0875 15.55 5 15.8 5C15.9833 5 16.15 5.05 16.3 5.15C16.45 5.25 16.5583 5.38333 16.625 5.55C16.725 5.51667 16.8208 5.49167 16.9125 5.475C17.0042 5.45833 17.0917 5.45 17.175 5.45C17.675 5.45 18.1042 5.62917 18.4625 5.9875C18.8208 6.34583 19 6.775 19 7.275C19 7.775 18.8208 8.20417 18.4625 8.5625C18.1042 8.92083 17.675 9.1 17.175 9.1Z" fill="white"/>
</svg>
