<svg width="50" height="50" viewBox="0 0 50 50" fill="none" xmlns="http://www.w3.org/2000/svg">
<path d="M50 25C50 38.8071 38.8071 50 25 50C11.1929 50 0 38.8071 0 25C0 11.1929 11.1929 0 25 0C38.8071 0 50 11.1929 50 25Z" fill="url(#paint0_linear_33_55)"/>
<path d="M40.3125 41.4844C40.3438 41.6406 40.3281 41.7344 40.2656 41.7656C40.2031 41.7969 40.1875 41.875 40.2188 42C39.9688 42.0625 39.7188 42.0938 39.4688 42.0938C39.2188 42.125 39.0156 42.2031 38.8594 42.3281C38.7031 42.2031 38.5469 42.1406 38.3906 42.1406C38.2656 42.1406 38.125 42.1406 37.9688 42.1406C37.8438 42.1406 37.7031 42.1406 37.5469 42.1406C37.3906 42.1406 37.2344 42.0781 37.0781 41.9531C36.3594 41.9844 35.6406 41.9844 34.9219 41.9531C34.2344 41.9219 33.5781 41.9531 32.9531 42.0469C32.7656 41.9219 32.6562 41.8906 32.625 41.9531C32.625 42.0156 32.5469 42.0625 32.3906 42.0938C32.0156 41.9062 31.5625 41.875 31.0312 42C30.5312 42.0938 30.0625 42.125 29.625 42.0938C29.5625 42.1875 29.4062 42.2656 29.1562 42.3281C28.9375 42.3906 28.7031 42.4219 28.4531 42.4219C28.2344 42.4219 28.0312 42.3906 27.8438 42.3281C27.6562 42.2656 27.5625 42.1406 27.5625 41.9531C27.5938 41.8906 27.7031 41.7812 27.8906 41.625C28.0781 41.4375 28.2344 41.3281 28.3594 41.2969C28.4844 41.2344 28.6406 41.25 28.8281 41.3438C29.0469 41.4062 29.2188 41.3906 29.3438 41.2969C29.3125 41.1406 29.3125 41.0312 29.3438 40.9688C29.375 40.9062 29.4219 40.8438 29.4844 40.7812C29.3906 40.625 29.3438 40.5156 29.3438 40.4531C29.375 40.3906 29.4062 40.2656 29.4375 40.0781C29.125 40.0469 28.9062 40.0469 28.7812 40.0781C28.6875 40.1094 28.5625 40.1094 28.4062 40.0781C28.4062 39.7031 28.4375 39.5312 28.5 39.5625C28.5625 39.5625 28.6562 39.5781 28.7812 39.6094C28.5625 39.3594 28.4844 39.2188 28.5469 39.1875C28.6406 39.1562 28.7188 39.1094 28.7812 39.0469C28.8125 38.8281 28.8125 38.5938 28.7812 38.3438C28.75 38.0938 28.6094 37.9688 28.3594 37.9688C28.1094 37.5312 27.875 37.125 27.6562 36.75C27.4375 36.375 27.1562 36.0625 26.8125 35.8125C26.7188 35.3125 26.5312 34.7969 26.25 34.2656C25.9688 33.9844 25.8125 33.7656 25.7812 33.6094C25.75 33.4219 25.6562 33.25 25.5 33.0938C25.25 32.5938 25.0781 32.2344 24.9844 32.0156C24.8906 31.7969 24.875 31.5469 24.9375 31.2656C24.6875 31.2656 24.5312 31.3125 24.4688 31.4062C24.4375 31.4688 24.4062 31.5469 24.375 31.6406C24.1875 31.5781 24.0938 31.5938 24.0938 31.6875C24.125 31.7812 24.0312 31.8125 23.8125 31.7812C23.75 31.6562 23.6562 31.5312 23.5312 31.4062C23.4375 31.2812 23.4688 31.1562 23.625 31.0312C23.4375 30.9688 23.3125 31 23.25 31.125C23.2188 31.2188 23.125 31.2969 22.9688 31.3594C22.4375 31.5469 22.0469 31.8438 21.7969 32.25C21.5469 32.625 21.5 33.1719 21.6562 33.8906C21.7812 34.3594 21.8281 34.75 21.7969 35.0625C21.7656 35.375 21.8281 35.6094 21.9844 35.7656C22.3281 35.7344 22.4531 35.7656 22.3594 35.8594C22.2969 35.9219 22.3281 35.9844 22.4531 36.0469C22.5469 35.7656 22.7812 35.5469 23.1562 35.3906C23.2188 35.6719 23.2188 35.8438 23.1562 35.9062C23.0938 35.9375 23 35.9688 22.875 36C22.5938 36.2188 22.4062 36.4062 22.3125 36.5625C22.2188 36.7188 22.0938 36.875 21.9375 37.0312C21.9688 37.2812 21.9531 37.4219 21.8906 37.4531C21.8594 37.4531 21.8281 37.4844 21.7969 37.5469C21.8281 37.7031 21.8906 37.8125 21.9844 37.875C22.1094 37.9062 22.1719 38 22.1719 38.1562C22.2031 38.3125 22.1562 38.4062 22.0312 38.4375C21.9062 38.4688 21.8594 38.5625 21.8906 38.7188C22.0156 39.25 22.1719 39.5312 22.3594 39.5625C22.5781 39.5938 22.7344 39.6875 22.8281 39.8438C22.6719 40.0625 22.6562 40.25 22.7812 40.4062C22.9375 40.5625 23.1406 40.6094 23.3906 40.5469C23.5469 40.7656 23.7344 40.9062 23.9531 40.9688C24.2031 41.0312 24.4688 41.0625 24.75 41.0625C25.0312 41.0312 25.2969 41 25.5469 40.9688C25.8281 40.9375 26.0938 40.9375 26.3438 40.9688C26.3125 41.2812 26.1406 41.4688 25.8281 41.5312C25.7656 42.0625 25.625 42.3281 25.4062 42.3281C25.2188 42.3594 24.9531 42.375 24.6094 42.375C24.4219 42.375 24.2188 42.4062 24 42.4688C23.7812 42.5312 23.5938 42.5312 23.4375 42.4688C23.25 42.5 23.0625 42.4688 22.875 42.375C22.6875 42.2812 22.5156 42.2344 22.3594 42.2344C22.1094 42.2031 21.875 42.2031 21.6562 42.2344C21.4688 42.2656 21.2969 42.2031 21.1406 42.0469C20.9844 42.1094 20.8281 42.125 20.6719 42.0938C20.5156 42.0938 20.3594 42.0781 20.2031 42.0469C20.0469 42.0469 19.8906 42.0312 19.7344 42C19.6094 42 19.4844 42.0469 19.3594 42.1406C19.1406 42.0469 18.875 42 18.5625 42C18.2812 42 18.0156 41.9688 17.7656 41.9062C17.3281 42.0625 16.8594 42.0938 16.3594 42C15.8906 41.9375 15.3906 41.9688 14.8594 42.0938C14.6094 42.1562 14.3438 42.2344 14.0625 42.3281C13.8125 42.4219 13.5469 42.4844 13.2656 42.5156C12.8906 42.5781 12.5156 42.6094 12.1406 42.6094C11.7656 42.6406 11.4062 42.5938 11.0625 42.4688C11.3438 42.125 11.5781 41.9375 11.7656 41.9062C11.9219 41.8438 12.1094 41.8125 12.3281 41.8125C12.5469 41.8125 12.7656 41.8125 12.9844 41.8125C13.2031 41.7812 13.375 41.7031 13.5 41.5781C14.0625 41.6094 14.625 41.5156 15.1875 41.2969C15.7812 41.0469 16.1406 40.6094 16.2656 39.9844C16.2344 39.3281 16.2656 38.7344 16.3594 38.2031C16.4531 37.6406 16.3594 37.1562 16.0781 36.75C16.2344 36.5 16.3125 36.2344 16.3125 35.9531C16.3438 35.6406 16.3438 35.2656 16.3125 34.8281C16.0625 34.4531 15.9688 34.2344 16.0312 34.1719C16.125 34.0781 16.2031 33.9688 16.2656 33.8438C16.2031 32.75 16.1406 31.6406 16.0781 30.5156C16.0156 29.3594 16.0469 28.1562 16.1719 26.9062C16.0469 26.8125 15.9531 26.7656 15.8906 26.7656C15.8281 26.7344 15.7344 26.6875 15.6094 26.625C15.5469 26.5 15.5469 26.3438 15.6094 26.1562C15.6719 25.9375 15.7656 25.8594 15.8906 25.9219C15.8906 25.6719 15.9375 25.5 16.0312 25.4062C16.125 25.3125 16.2344 25.2188 16.3594 25.125C16.3594 24.6875 16.375 24.2656 16.4062 23.8594C16.4375 23.4531 16.4844 23.0312 16.5469 22.5938C16.2656 22.4688 16.1094 22.3281 16.0781 22.1719C16.0469 22.0156 16.0625 21.8438 16.125 21.6562C16.2188 21.4688 16.3125 21.2812 16.4062 21.0938C16.5 20.875 16.5469 20.625 16.5469 20.3438C16.4844 20.25 16.4062 20.1875 16.3125 20.1562C16.25 20.0938 16.2031 19.9844 16.1719 19.8281C16.4531 19.3594 16.5781 18.9688 16.5469 18.6562C16.5469 18.3125 16.4688 18.0156 16.3125 17.7656C16.375 17.6406 16.3906 17.5 16.3594 17.3438C16.3594 17.1562 16.3594 16.9688 16.3594 16.7812C16.0781 16.7188 15.9062 16.6094 15.8438 16.4531C15.7812 16.2656 15.7812 16.0781 15.8438 15.8906C15.9062 15.7031 16.0156 15.5156 16.1719 15.3281C16.3281 15.1406 16.4688 15 16.5938 14.9062C16.5625 14.5625 16.5625 14.2812 16.5938 14.0625C16.625 13.8438 16.625 13.5156 16.5938 13.0781C16.4062 12.8906 16.3125 12.6875 16.3125 12.4688C16.3438 12.2188 16.4375 12.0156 16.5938 11.8594C16.625 11.5781 16.6094 11.3281 16.5469 11.1094C16.4844 10.8594 16.4219 10.6406 16.3594 10.4531C16.2969 10.2344 16.2344 10.0312 16.1719 9.84375C16.1094 9.65625 16.0938 9.45312 16.125 9.23438C16.0625 9.10938 15.9375 8.95312 15.75 8.76562C15.4375 8.76562 15.125 8.67188 14.8125 8.48438C14.5312 8.29688 14.2656 8.15625 14.0156 8.0625C13.7344 8.03125 13.5625 7.98438 13.5 7.92188C13.4375 7.85938 13.375 7.8125 13.3125 7.78125C13.0625 7.71875 12.7656 7.73438 12.4219 7.82812C12.0781 7.92188 11.7812 7.875 11.5312 7.6875C11.8125 7.15625 12.1094 6.875 12.4219 6.84375C12.7656 6.8125 13.1094 6.79688 13.4531 6.79688C13.8281 6.79688 14.1875 6.78125 14.5312 6.75C14.875 6.71875 15.2344 6.60938 15.6094 6.42188C15.7656 6.57812 15.9688 6.67188 16.2188 6.70312C16.4688 6.70312 16.7344 6.6875 17.0156 6.65625C17.2969 6.625 17.5625 6.59375 17.8125 6.5625C18.0625 6.53125 18.2812 6.53125 18.4688 6.5625C18.9062 6.46875 19.2656 6.42188 19.5469 6.42188C19.8281 6.42188 20.0938 6.42188 20.3438 6.42188C20.625 6.39062 20.8906 6.39062 21.1406 6.42188C21.3906 6.45312 21.6406 6.54688 21.8906 6.70312C21.7969 6.89062 21.7031 6.98438 21.6094 6.98438C21.5469 6.95312 21.4844 6.9375 21.4219 6.9375C21.4844 7.25 21.4531 7.54688 21.3281 7.82812C21.3906 8.01562 21.5312 8.125 21.75 8.15625C21.9688 8.15625 22.0781 8.28125 22.0781 8.53125C21.9844 8.59375 21.8594 8.70312 21.7031 8.85938C21.5781 8.98438 21.4844 9.125 21.4219 9.28125C21.3594 9.40625 21.3438 9.54688 21.375 9.70312C21.4062 9.85938 21.5156 9.98438 21.7031 10.0781C21.7656 10.2344 21.7344 10.3594 21.6094 10.4531C21.5156 10.5469 21.4531 10.6562 21.4219 10.7812C21.3594 10.9375 21.3594 11.0938 21.4219 11.25C21.4844 11.4062 21.5 11.5625 21.4688 11.7188C21.4062 11.9062 21.3438 12.1562 21.2812 12.4688C21.25 12.75 21.2344 13.0156 21.2344 13.2656C21.2969 13.3906 21.375 13.4844 21.4688 13.5469C21.5625 13.5781 21.6406 13.625 21.7031 13.6875C21.7031 13.9062 21.6406 14.0938 21.5156 14.25C21.3906 14.4062 21.3125 14.5938 21.2812 14.8125C21.375 15 21.5156 15.125 21.7031 15.1875C21.7656 15.4688 21.7031 15.7188 21.5156 15.9375C21.3281 16.125 21.3125 16.3438 21.4688 16.5938C21.4062 16.9375 21.3906 17.2031 21.4219 17.3906C21.4844 17.5469 21.5469 17.7031 21.6094 17.8594C21.4219 17.9531 21.3281 18.125 21.3281 18.375C21.3281 18.625 21.3281 18.875 21.3281 19.125C21.5156 19.4375 21.5625 19.625 21.4688 19.6875C21.4062 19.7188 21.3594 19.7969 21.3281 19.9219C21.4531 20.0781 21.4844 20.25 21.4219 20.4375C21.3594 20.5938 21.3281 20.75 21.3281 20.9062C21.4531 21 21.5312 21.125 21.5625 21.2812C21.5938 21.4375 21.5938 21.6094 21.5625 21.7969C21.5312 21.9531 21.4844 22.125 21.4219 22.3125C21.3906 22.5 21.3906 22.6719 21.4219 22.8281C21.5781 23.1406 21.6719 23.3594 21.7031 23.4844C21.6406 23.7344 21.5625 23.9688 21.4688 24.1875C21.375 24.4062 21.3594 24.6406 21.4219 24.8906C21.5781 24.9844 21.6719 25.1719 21.7031 25.4531C21.7344 25.7031 21.6562 25.8906 21.4688 26.0156C21.5312 26.1719 21.5312 26.3281 21.4688 26.4844C21.4375 26.6406 21.4844 26.7812 21.6094 26.9062C21.5469 27.3438 21.5156 27.8281 21.5156 28.3594C21.5469 28.8906 21.5781 29.375 21.6094 29.8125C21.5156 30 21.4844 30.1875 21.5156 30.375C21.5469 30.5312 21.5625 30.7031 21.5625 30.8906C22.0938 30.7656 22.4531 30.5312 22.6406 30.1875C22.8594 29.8125 23.1719 29.5156 23.5781 29.2969C23.9844 28.7031 24.5 28.2031 25.125 27.7969C25.75 27.3906 26.2656 26.8594 26.6719 26.2031C26.8281 26.1719 26.9375 26.1094 27 26.0156C27.0938 25.9219 27.2031 25.8438 27.3281 25.7812C27.5469 25.4688 27.7656 25.2656 27.9844 25.1719C28.2344 25.0781 28.375 24.8594 28.4062 24.5156C28.5625 24.4219 28.7031 24.3281 28.8281 24.2344C28.9844 24.1094 29.0938 23.9219 29.1562 23.6719C29.375 23.4531 29.4688 23.25 29.4375 23.0625C29.4062 22.8438 29.5 22.7031 29.7188 22.6406C29.6875 22.3906 29.625 22.1562 29.5312 21.9375C29.4688 21.7188 29.5156 21.5312 29.6719 21.375C29.6094 21.2188 29.5469 21.0625 29.4844 20.9062C29.4531 20.7188 29.375 20.5469 29.25 20.3906C29.0938 20.2656 28.9219 20.1719 28.7344 20.1094C28.5781 20.0156 28.4375 19.9219 28.3125 19.8281C28.2812 19.8281 28.1875 19.7812 28.0312 19.6875C27.875 19.5938 27.7656 19.5312 27.7031 19.5C27.5781 19.5 27.4375 19.5312 27.2812 19.5938C27.1562 19.625 27.0312 19.625 26.9062 19.5938C26.6562 19.5 26.5 19.2812 26.4375 18.9375C26.875 18.75 27.3438 18.6406 27.8438 18.6094C28.3438 18.5469 28.8281 18.5312 29.2969 18.5625C29.7969 18.5625 30.2812 18.5781 30.75 18.6094C31.2188 18.6094 31.6406 18.5625 32.0156 18.4688C32.1094 18.5312 32.2188 18.5469 32.3438 18.5156C32.4688 18.4844 32.5938 18.4531 32.7188 18.4219C32.8438 18.3594 32.9531 18.3281 33.0469 18.3281C33.1406 18.3281 33.2188 18.3906 33.2812 18.5156C33.6875 18.6719 34.0312 18.7656 34.3125 18.7969C34.625 18.8281 34.9531 18.8281 35.2969 18.7969C35.6719 18.7656 36.0312 18.7344 36.375 18.7031C36.75 18.6719 37.1094 18.7188 37.4531 18.8438C37.6094 18.8125 37.7969 18.7812 38.0156 18.75C38.2344 18.6875 38.4219 18.6875 38.5781 18.75C38.4844 19.1562 38.25 19.4062 37.875 19.5C37.5 19.5938 37.0781 19.6406 36.6094 19.6406C36.1719 19.6406 35.75 19.6719 35.3438 19.7344C34.9375 19.7656 34.6562 19.9375 34.5 20.25C34.1875 20.3125 34 20.4531 33.9375 20.6719C33.8125 20.6406 33.7188 20.6562 33.6562 20.7188C33.5938 20.75 33.5 20.75 33.375 20.7188C32.8438 21.1875 32.3594 21.6094 31.9219 21.9844C31.4844 22.3594 31.125 22.8438 30.8438 23.4375C30.5938 23.5 30.3906 23.625 30.2344 23.8125C30.0781 23.9688 29.9219 24.1406 29.7656 24.3281C29.6094 24.5156 29.4531 24.7031 29.2969 24.8906C29.1406 25.0781 28.9375 25.2344 28.6875 25.3594C28.7188 25.8281 28.8438 26.2031 29.0625 26.4844C29.2812 26.7344 29.4219 27.0938 29.4844 27.5625C29.7656 27.9062 29.9844 28.3281 30.1406 28.8281C30.2969 29.2969 30.5156 29.7031 30.7969 30.0469C30.6719 30.2344 30.6875 30.4375 30.8438 30.6562C31 30.875 31.125 31.0625 31.2188 31.2188C31.125 31.5625 31.1406 31.8438 31.2656 32.0625C31.4219 32.2812 31.5312 32.5156 31.5938 32.7656C31.8438 33.0469 32.0312 33.4062 32.1562 33.8438C32.2812 34.25 32.5156 34.5312 32.8594 34.6875C32.8281 34.8438 32.8281 34.9688 32.8594 35.0625C32.9219 35.125 32.9844 35.1875 33.0469 35.25C33.1094 35.3125 33.1562 35.375 33.1875 35.4375C33.25 35.4688 33.2812 35.5312 33.2812 35.625C33.5938 35.7188 33.75 35.7812 33.75 35.8125C33.7812 35.8125 33.7969 35.8281 33.7969 35.8594C33.6719 36.2969 33.6094 36.5938 33.6094 36.75C33.6094 36.875 33.6875 36.9688 33.8438 37.0312C33.9062 37.1562 33.9531 37.2969 33.9844 37.4531C34.0469 37.6094 34.1562 37.7188 34.3125 37.7812C34.25 37.9688 34.25 38.1406 34.3125 38.2969C34.4062 38.4531 34.5 38.6094 34.5938 38.7656C34.7188 38.8906 34.8438 39.0312 34.9688 39.1875C35.0938 39.3125 35.1719 39.4531 35.2031 39.6094C35.9219 40.0156 36.5625 40.3906 37.125 40.7344C37.7188 41.0781 38.3906 41.2344 39.1406 41.2031C39.2344 41.2656 39.3125 41.3125 39.375 41.3438C39.4688 41.375 39.5469 41.4062 39.6094 41.4375C39.7031 41.375 39.8281 41.3594 39.9844 41.3906C40.1406 41.3906 40.25 41.4219 40.3125 41.4844ZM31.6875 19.4531C31.4375 19.5469 31.125 19.6406 30.75 19.7344C30.4062 19.7969 30.25 19.9688 30.2812 20.25C30.5 20.4062 30.625 20.4375 30.6562 20.3438C30.7188 20.2188 30.8438 20.2188 31.0312 20.3438C31.0938 20.125 31.2188 20 31.4062 19.9688C31.5938 19.9062 31.6875 19.7344 31.6875 19.4531ZM20.5781 9.09375C20.5156 8.78125 20.5312 8.54688 20.625 8.39062C20.75 8.20312 20.7344 8.03125 20.5781 7.875C20.2656 8.21875 19.9219 8.51562 19.5469 8.76562C19.1719 9.01562 18.8125 9.3125 18.4688 9.65625C18.375 9.96875 18.2188 10.1719 18 10.2656C17.8125 10.3594 17.625 10.4688 17.4375 10.5938C17.4688 10.7188 17.4688 10.8594 17.4375 11.0156C17.4375 11.1406 17.4844 11.2344 17.5781 11.2969C17.9844 11.0781 18.2344 10.875 18.3281 10.6875C18.4531 10.5 18.6875 10.4219 19.0312 10.4531C19.0938 10.0156 19.2969 9.75 19.6406 9.65625C20.0156 9.53125 20.3281 9.34375 20.5781 9.09375ZM20.7188 9.70312C20.5 9.70312 20.3125 9.79688 20.1562 9.98438C20 10.1406 19.7969 10.25 19.5469 10.3125C19.6094 10.375 19.6094 10.4219 19.5469 10.4531C19.5156 10.4844 19.4688 10.5156 19.4062 10.5469C19.3438 10.5781 19.2812 10.625 19.2188 10.6875C19.1875 10.7188 19.2031 10.75 19.2656 10.7812C19.4219 10.8438 19.5156 10.9375 19.5469 11.0625C19.5781 11.1562 19.5938 11.2344 19.5938 11.2969C19.6562 10.9844 19.7188 10.7812 19.7812 10.6875C19.875 10.5625 19.9844 10.4531 20.1094 10.3594C20.2344 10.2656 20.3594 10.1719 20.4844 10.0781C20.6094 9.98438 20.6875 9.85938 20.7188 9.70312ZM19.125 8.25C18.7188 8.40625 18.3438 8.59375 18 8.8125C17.6875 9 17.3906 9.23438 17.1094 9.51562C17.5781 9.51562 17.9688 9.39062 18.2812 9.14062C18.5938 8.89062 18.875 8.59375 19.125 8.25ZM17.1562 8.0625C17 8.0625 16.8281 8.09375 16.6406 8.15625C16.8594 8.1875 17 8.20312 17.0625 8.20312C17.125 8.17188 17.1562 8.125 17.1562 8.0625ZM20.7188 12.5156C20.6562 12.2969 20.6719 12.0625 20.7656 11.8125C20.8906 11.5625 20.8438 11.3594 20.625 11.2031C20.2812 11.3281 19.9688 11.5312 19.6875 11.8125C19.4062 12.0625 19.1875 12.3125 19.0312 12.5625C19.2812 12.4375 19.5625 12.3594 19.875 12.3281C20.1875 12.2969 20.4688 12.3594 20.7188 12.5156ZM18.75 11.6719C18.5 11.8281 18.2969 11.9531 18.1406 12.0469C18.0156 12.1406 17.8906 12.2344 17.7656 12.3281C17.6406 12.4219 17.5312 12.5312 17.4375 12.6562C17.3438 12.75 17.3125 12.9062 17.3438 13.125C17.625 12.9062 17.8438 12.8438 18 12.9375C18 12.625 18.125 12.4062 18.375 12.2812C18.625 12.125 18.75 11.9219 18.75 11.6719ZM20.5781 12.6094C20.4219 12.6406 20.3281 12.7344 20.2969 12.8906C20.2656 13.0469 20.1719 13.0938 20.0156 13.0312C19.8281 13.1875 19.6875 13.2969 19.5938 13.3594C19.5312 13.3906 19.4688 13.4219 19.4062 13.4531C19.4062 13.7656 19.2656 13.9531 18.9844 14.0156C18.7344 14.0469 18.5 14.1094 18.2812 14.2031C18.2812 14.3906 18.2031 14.5 18.0469 14.5312C17.9219 14.5312 17.875 14.6094 17.9062 14.7656C17.6562 14.7656 17.4688 14.8906 17.3438 15.1406C17.2188 15.3594 17.1406 15.5938 17.1094 15.8438C17.3281 15.6875 17.5156 15.5938 17.6719 15.5625C17.8281 15.5312 17.9062 15.4531 17.9062 15.3281C18.1562 15.2031 18.3281 15.1406 18.4219 15.1406C18.5156 15.1094 18.5938 15.125 18.6562 15.1875C18.3125 15.25 18.0781 15.3906 17.9531 15.6094C17.8281 15.8281 17.625 15.9688 17.3438 16.0312C17.3125 16.1875 17.2344 16.3125 17.1094 16.4062C16.9844 16.4688 16.9219 16.5938 16.9219 16.7812C17.1406 16.75 17.2812 16.6875 17.3438 16.5938C17.4375 16.5 17.5469 16.4219 17.6719 16.3594C17.7969 16.2656 17.9062 16.2031 18 16.1719C18.125 16.1094 18.2188 16.0156 18.2812 15.8906C18.3438 16.0469 18.4219 16.0938 18.5156 16.0312C18.6406 15.9688 18.7344 15.9062 18.7969 15.8438C18.8281 15.6875 18.9375 15.5156 19.125 15.3281C19.3125 15.1406 19.5312 15.0156 19.7812 14.9531C19.875 14.8281 19.9531 14.7344 20.0156 14.6719C20.0781 14.5781 20.1562 14.5156 20.25 14.4844C20.0625 14.4531 19.8906 14.4688 19.7344 14.5312C19.6094 14.5938 19.4688 14.5938 19.3125 14.5312C19.4375 14.4062 19.5625 14.2812 19.6875 14.1562C19.8125 14.0312 19.9375 14.0312 20.0625 14.1562C20.25 13.9375 20.4062 13.7188 20.5312 13.5C20.6875 13.25 20.7031 12.9531 20.5781 12.6094ZM17.7656 13.9688C17.6406 14 17.5156 14.0625 17.3906 14.1562C17.2969 14.25 17.2812 14.3594 17.3438 14.4844C17.5625 14.3594 17.6875 14.2656 17.7188 14.2031C17.75 14.1406 17.7656 14.0625 17.7656 13.9688ZM20.6719 14.7656C20.4219 14.8906 20.2969 14.9219 20.2969 14.8594C20.2969 14.7656 20.25 14.7344 20.1562 14.7656C20 15.0469 19.8906 15.2188 19.8281 15.2812C19.7656 15.3438 19.6562 15.3906 19.5 15.4219C19.2188 15.7656 18.9688 15.9844 18.75 16.0781C18.5312 16.1406 18.3125 16.2188 18.0938 16.3125C18.2812 16.5 18.4531 16.5938 18.6094 16.5938C18.7656 16.5625 18.9062 16.625 19.0312 16.7812C18.875 16.7812 18.7656 16.8125 18.7031 16.875C18.6406 16.9375 18.5625 16.9688 18.4688 16.9688C18.3438 16.9062 18.2344 16.8594 18.1406 16.8281C18.0781 16.7656 17.9844 16.7188 17.8594 16.6875C17.7969 17.0625 17.7969 17.2188 17.8594 17.1562C17.9531 17.0938 18.0781 17.0625 18.2344 17.0625C18.0156 17.375 17.7812 17.6094 17.5312 17.7656C17.2812 17.9219 17.1719 18.2188 17.2031 18.6562C17.6094 18.0938 18.0781 17.7969 18.6094 17.7656C18.6719 17.6094 18.75 17.4688 18.8438 17.3438C18.9375 17.1875 19.1094 17.1562 19.3594 17.25C19.6719 16.9375 19.9219 16.6562 20.1094 16.4062C20.2969 16.125 20.2812 15.8594 20.0625 15.6094C20.375 15.4219 20.5781 15.2812 20.6719 15.1875C20.7969 15.0625 20.7969 14.9219 20.6719 14.7656ZM27.8438 26.4375C27.5938 26.5625 27.3906 26.6562 27.2344 26.7188C27.0781 26.7812 26.9688 26.9062 26.9062 27.0938C27.25 27 27.4688 26.9062 27.5625 26.8125C27.6875 26.7188 27.7812 26.5938 27.8438 26.4375ZM20.7188 17.2969C20.75 17.1094 20.7656 16.9688 20.7656 16.875C20.7656 16.75 20.7344 16.625 20.6719 16.5C20.3594 16.625 20.2031 16.7031 20.2031 16.7344C20.2344 16.7344 20.25 16.7656 20.25 16.8281C19.9375 17.0469 19.7656 17.125 19.7344 17.0625C19.7344 16.9688 19.7031 16.9375 19.6406 16.9688C19.5156 17.2188 19.4375 17.3906 19.4062 17.4844C19.375 17.5469 19.3125 17.5469 19.2188 17.4844C19.0625 17.9219 18.7031 18.2344 18.1406 18.4219C18.1719 18.5781 18.125 18.6719 18 18.7031C17.875 18.7031 17.8125 18.7812 17.8125 18.9375C18.0938 18.625 18.4062 18.4219 18.75 18.3281C19.0938 18.2344 19.3906 18.1094 19.6406 17.9531C19.7344 18.1406 19.7344 18.2656 19.6406 18.3281C19.5469 18.3906 19.4219 18.4062 19.2656 18.375C19.2344 18.5 19.1406 18.625 18.9844 18.75C18.8594 18.875 18.7344 19 18.6094 19.125C17.8906 19.5 17.4219 19.9219 17.2031 20.3906C17.5781 20.4219 17.7812 20.3906 17.8125 20.2969C17.8438 20.1719 17.9375 20.125 18.0938 20.1562C18.3125 19.9375 18.4531 19.7656 18.5156 19.6406C18.5781 19.5156 18.6875 19.5 18.8438 19.5938C19 19.25 19.1094 19.0469 19.1719 18.9844C19.2656 18.9219 19.3438 18.8594 19.4062 18.7969C19.5938 18.7969 19.7031 18.75 19.7344 18.6562C19.7969 18.5625 19.8906 18.5 20.0156 18.4688C20.2031 18.1875 20.3438 18.0156 20.4375 17.9531C20.3438 18.0156 20.2188 18.0469 20.0625 18.0469C19.9062 18.0156 19.7969 17.9688 19.7344 17.9062C19.9219 17.8438 20.0938 17.75 20.25 17.625C20.4062 17.5 20.5625 17.3906 20.7188 17.2969ZM28.6875 28.1719C28.625 28.1094 28.5938 28.0312 28.5938 27.9375C28.5938 27.8438 28.5469 27.7656 28.4531 27.7031C28.4531 27.9531 28.3438 28.0938 28.125 28.125C27.9062 28.125 27.7969 28.25 27.7969 28.5C27.9531 28.5625 28.0938 28.5469 28.2188 28.4531C28.375 28.3281 28.5312 28.2344 28.6875 28.1719ZM29.25 29.5312C29.0938 29.2812 28.9688 29.2031 28.875 29.2969C28.7812 29.3594 28.7344 29.4375 28.7344 29.5312H29.25ZM20.6719 19.1719C20.5469 18.8906 20.4531 18.7812 20.3906 18.8438C20.3281 18.875 20.2656 18.9219 20.2031 18.9844C20.1406 19.0469 20.0625 19.1094 19.9688 19.1719C19.9062 19.2031 19.8125 19.2188 19.6875 19.2188C19.6875 19.375 19.625 19.4688 19.5 19.5C19.4062 19.5312 19.2969 19.5781 19.1719 19.6406C19.0156 19.9844 18.7812 20.2344 18.4688 20.3906C18.1562 20.5156 17.9219 20.75 17.7656 21.0938C18.0469 20.7812 18.3125 20.5781 18.5625 20.4844C18.8438 20.3906 19.1562 20.3125 19.5 20.25C19.4375 19.9062 19.5938 19.7656 19.9688 19.8281C20 19.6094 20.0781 19.4688 20.2031 19.4062C20.3594 19.3125 20.5156 19.2344 20.6719 19.1719ZM20.6719 20.625C20.3906 20.6875 20.1562 20.7969 19.9688 20.9531C19.7812 21.0781 19.5625 21.1875 19.3125 21.2812C19.4375 21.3125 19.5469 21.3281 19.6406 21.3281C19.7656 21.2969 19.9062 21.3125 20.0625 21.375C20.1875 21.25 20.3281 21.1719 20.4844 21.1406C20.6719 21.0781 20.7344 20.9062 20.6719 20.625ZM31.2188 33.2812C31.1562 33.125 31.0469 33.0312 30.8906 33C30.7344 32.9688 30.6406 33.0625 30.6094 33.2812C30.7031 33.2188 30.7969 33.2188 30.8906 33.2812C31.0156 33.3438 31.125 33.3438 31.2188 33.2812ZM26.0156 27.8906C25.9531 27.9531 25.8594 28 25.7344 28.0312C25.6406 28.0625 25.5938 28.1562 25.5938 28.3125C25.75 28.2812 25.8438 28.2344 25.875 28.1719C25.9062 28.0781 25.9531 27.9844 26.0156 27.8906ZM19.5938 21.4219C19.4375 21.4219 19.3438 21.4844 19.3125 21.6094C19.2812 21.7031 19.2031 21.6875 19.0781 21.5625C19.1406 21.6875 19.25 21.7344 19.4062 21.7031C19.5625 21.6719 19.625 21.5781 19.5938 21.4219ZM28.3594 29.1094C28.2344 28.8906 28.0625 28.7969 27.8438 28.8281C27.625 28.8281 27.4375 28.875 27.2812 28.9688C27.1875 28.8438 27.0938 28.8281 27 28.9219C26.9062 28.9844 26.8125 29.0469 26.7188 29.1094C26.4062 29.4844 26.2031 29.7188 26.1094 29.8125C25.8594 30.0625 25.75 30.2031 25.7812 30.2344C25.8438 30.2344 25.875 30.2656 25.875 30.3281C25.8125 30.5156 25.7344 30.6562 25.6406 30.75C25.5469 30.8438 25.5156 30.9375 25.5469 31.0312C25.7344 31.0625 25.8281 31.0156 25.8281 30.8906C25.8594 30.7344 25.9844 30.6875 26.2031 30.75C26.2344 30.625 26.2812 30.5312 26.3438 30.4688C26.4062 30.375 26.5156 30.3594 26.6719 30.4219C26.6406 30.2656 26.6875 30.1406 26.8125 30.0469C26.9688 29.9219 27.1562 29.8438 27.375 29.8125C27.3438 29.6875 27.375 29.5938 27.4688 29.5312C27.5625 29.4688 27.6562 29.4375 27.75 29.4375C27.875 29.4062 28 29.375 28.125 29.3438C28.25 29.2812 28.3281 29.2031 28.3594 29.1094ZM19.3594 20.7656C19.1094 20.6719 18.9062 20.7188 18.75 20.9062C18.625 21.0625 18.4844 21.2188 18.3281 21.375C18.2656 21.3438 18.1719 21.375 18.0469 21.4688C17.9531 21.5312 17.8438 21.5781 17.7188 21.6094C17.6562 21.8281 17.5625 21.9844 17.4375 22.0781C17.3438 22.1406 17.2812 22.2656 17.25 22.4531C17.5 22.3906 17.7031 22.2812 17.8594 22.125C18.0469 21.9375 18.2188 21.75 18.375 21.5625C18.5312 21.375 18.6875 21.2188 18.8438 21.0938C19 20.9375 19.1719 20.8281 19.3594 20.7656ZM31.9688 35.4844C31.75 35.2344 31.625 35.1406 31.5938 35.2031C31.5625 35.2344 31.5 35.2344 31.4062 35.2031C31.5938 35.3906 31.7188 35.5 31.7812 35.5312C31.8438 35.5312 31.9062 35.5156 31.9688 35.4844ZM30.7031 32.7656C30.6719 32.6406 30.5938 32.5781 30.4688 32.5781C30.375 32.5469 30.2656 32.5625 30.1406 32.625C30.2656 32.2812 30.3438 31.9844 30.375 31.7344C30.0938 31.3594 29.9531 31.125 29.9531 31.0312C29.9531 30.9375 29.9219 30.8281 29.8594 30.7031C29.5781 30.7031 29.4062 30.7812 29.3438 30.9375C29.375 31.1562 29.3594 31.2812 29.2969 31.3125C29.2344 31.3438 29.1875 31.3906 29.1562 31.4531C28.8438 31.5781 28.6406 31.7188 28.5469 31.875C28.4531 32 28.2812 32.0312 28.0312 31.9688C28.2812 31.7812 28.4844 31.6406 28.6406 31.5469C28.6406 31.2344 28.5 31.1094 28.2188 31.1719C28.4375 30.7969 28.6875 30.5781 28.9688 30.5156C29.25 30.4531 29.4531 30.3125 29.5781 30.0938C29.3594 30.0938 29.1719 30.0781 29.0156 30.0469C28.8594 29.9844 28.7188 30.0312 28.5938 30.1875C28.4062 30.4375 28.1562 30.5781 27.8438 30.6094C27.5312 30.6406 27.2656 30.7344 27.0469 30.8906C27.1094 31.0781 27.0938 31.2344 27 31.3594C26.9062 31.4844 26.7969 31.6094 26.6719 31.7344C26.5469 31.8281 26.4219 31.9375 26.2969 32.0625C26.2031 32.1562 26.1875 32.2969 26.25 32.4844C26.4062 32.5156 26.5156 32.4844 26.5781 32.3906C26.6406 32.2656 26.75 32.2344 26.9062 32.2969C26.9375 31.9844 27.1562 31.8594 27.5625 31.9219C27.7188 31.9844 27.8906 32.0312 28.0781 32.0625C28.2656 32.0938 28.3281 32.1875 28.2656 32.3438C28.1719 32.2812 28.0469 32.2188 27.8906 32.1562C27.7656 32.0625 27.6406 32.0469 27.5156 32.1094C27.7344 32.4219 27.7656 32.5938 27.6094 32.625C27.4531 32.625 27.3438 32.6406 27.2812 32.6719C27.375 32.8281 27.375 32.9375 27.2812 33C27.2188 33.0625 27.1094 33.125 26.9531 33.1875C26.8594 33.5938 26.8438 33.8906 26.9062 34.0781C26.9688 34.2344 27.125 34.3281 27.375 34.3594C27.5 34.8594 27.6094 35.0156 27.7031 34.8281C27.8281 34.6406 27.9688 34.5625 28.125 34.5938C28 34.2188 28.0312 33.9375 28.2188 33.75C28.4375 33.5312 28.6406 33.4688 28.8281 33.5625C28.8906 33.5625 28.9531 33.5625 29.0156 33.5625C29.1094 33.5625 29.2188 33.5938 29.3438 33.6562C29.3438 33.4688 29.4219 33.3906 29.5781 33.4219C29.7656 33.4219 29.875 33.3281 29.9062 33.1406C30.0625 33.0469 30.3281 32.9219 30.7031 32.7656ZM29.1094 33.7031C28.9531 33.7031 28.7969 33.7812 28.6406 33.9375C28.5156 34.0625 28.5469 34.1562 28.7344 34.2188C28.8281 34.0312 28.9531 33.8594 29.1094 33.7031ZM30.0938 33.9375C29.9688 33.9375 29.8594 33.9844 29.7656 34.0781C29.7031 34.1719 29.6094 34.1875 29.4844 34.125C29.3906 34.375 29.3125 34.5312 29.25 34.5938C29.2188 34.625 29.1562 34.6719 29.0625 34.7344C28.9688 34.7656 28.875 34.8125 28.7812 34.875C28.6875 34.9062 28.6406 34.9688 28.6406 35.0625C28.9219 35.1875 29.0781 35.1875 29.1094 35.0625C29.1406 34.9062 29.2344 34.8281 29.3906 34.8281C29.3906 34.5781 29.4844 34.4219 29.6719 34.3594C29.8906 34.2969 30.0312 34.1562 30.0938 33.9375ZM32.7188 37.2188C32.7188 37.0625 32.6719 36.9688 32.5781 36.9375C32.4844 36.875 32.4062 36.7969 32.3438 36.7031C32.375 37.1406 32.3125 37.3281 32.1562 37.2656C32 37.2031 31.8906 37.2188 31.8281 37.3125C31.7969 36.9688 31.8594 36.7344 32.0156 36.6094C32.2031 36.4844 32.375 36.3594 32.5312 36.2344C32.4688 36.1094 32.4062 36.0156 32.3438 35.9531C32.2812 35.8906 32.25 35.7969 32.25 35.6719C32.125 35.6406 32.0312 35.6562 31.9688 35.7188C31.9062 35.75 31.8125 35.75 31.6875 35.7188C31.375 35.9375 31.1875 36.0938 31.125 36.1875C31.0938 36.2812 30.9844 36.3281 30.7969 36.3281C30.7969 36.5156 30.7031 36.6875 30.5156 36.8438C30.3594 37 30.2344 37.0156 30.1406 36.8906C30.1094 36.7031 30.0938 36.5156 30.0938 36.3281C30.3438 36.1719 30.5312 35.9688 30.6562 35.7188C30.8125 35.4688 31.0469 35.2812 31.3594 35.1562C31.2031 35.125 31.1094 35.1562 31.0781 35.25C31.0469 35.3125 30.9531 35.3281 30.7969 35.2969C31.0781 35.1406 31.2812 35.0625 31.4062 35.0625C31.5625 35.0312 31.6719 34.9219 31.7344 34.7344C31.5156 34.7656 31.3281 34.7812 31.1719 34.7812C31.3281 34.5 31.3594 34.3125 31.2656 34.2188C31.2031 34.0938 31.2031 33.9844 31.2656 33.8906C31.0156 33.7969 30.8438 33.8125 30.75 33.9375C30.6562 34.0625 30.6406 34.1719 30.7031 34.2656C30.6406 34.1719 30.5156 34.1562 30.3281 34.2188C30.1719 34.25 30.125 34.3125 30.1875 34.4062C29.9688 34.75 29.8281 34.9688 29.7656 35.0625C29.7031 35.125 29.6406 35.2031 29.5781 35.2969C29.8281 35.1719 30.0156 35.0625 30.1406 34.9688C30.2969 34.875 30.4375 34.7969 30.5625 34.7344C30.375 35.0781 30.1562 35.3438 29.9062 35.5312C29.6562 35.7188 29.3438 35.875 28.9688 36C29.0938 36.1562 29.0625 36.2812 28.875 36.375C28.6875 36.4375 28.5938 36.5469 28.5938 36.7031C28.8438 36.8906 29.0469 37.125 29.2031 37.4062C29.3594 37.6875 29.4844 38 29.5781 38.3438C29.7969 38.25 30.0625 38.2031 30.375 38.2031C30.4062 37.9531 30.4688 37.7969 30.5625 37.7344C30.6875 37.6719 30.7969 37.6719 30.8906 37.7344C30.7969 37.6094 30.7969 37.4844 30.8906 37.3594C30.9844 37.2344 31.1094 37.1562 31.2656 37.125C31.3906 37.2188 31.5156 37.2656 31.6406 37.2656C31.7656 37.2656 31.8281 37.3438 31.8281 37.5C31.7344 37.5625 31.625 37.6094 31.5 37.6406C31.375 37.6719 31.2812 37.7656 31.2188 37.9219C31.5625 37.8906 31.7188 37.8438 31.6875 37.7812C31.6875 37.7188 31.7188 37.6719 31.7812 37.6406C31.9375 37.7031 32.0781 37.6562 32.2031 37.5C32.3281 37.3125 32.5 37.2188 32.7188 37.2188ZM35.7188 40.9219C35.5625 40.8281 35.4375 40.7812 35.3438 40.7812C35.25 40.7812 35.0938 40.7344 34.875 40.6406C35.0312 40.9531 35.1875 41.125 35.3438 41.1562C35.5312 41.1562 35.6562 41.0781 35.7188 40.9219ZM20.5781 22.4531C20.4219 22.4219 20.3125 22.4375 20.25 22.5C20.1875 22.5625 20.1094 22.5938 20.0156 22.5938C20.0156 22.75 19.9531 22.9062 19.8281 23.0625C19.7031 23.2188 19.5469 23.25 19.3594 23.1562C19.5469 22.875 19.7031 22.6562 19.8281 22.5C19.9844 22.3125 20.1406 22.25 20.2969 22.3125C20.4531 22 20.5312 21.8438 20.5312 21.8438C20.5625 21.8125 20.5625 21.7656 20.5312 21.7031C20.3438 21.7031 20.2031 21.7188 20.1094 21.75C20.0156 21.7812 19.9062 21.7969 19.7812 21.7969C19.5 21.9844 19.3125 22.1562 19.2188 22.3125C19.125 22.4375 18.9531 22.5156 18.7031 22.5469C18.7031 22.6094 18.625 22.7188 18.4688 22.875C18.3438 23 18.1875 23.1406 18 23.2969C17.8125 23.4531 17.625 23.6094 17.4375 23.7656C17.25 23.8906 17.125 24 17.0625 24.0938C17.125 24.1562 17.125 24.2812 17.0625 24.4688C17 24.625 17.0469 24.6719 17.2031 24.6094C17.6719 24.3594 18.0469 24.0469 18.3281 23.6719C18.6406 23.2656 19.0469 22.9375 19.5469 22.6875C19.3906 22.875 19.3125 23.0312 19.3125 23.1562C19.1875 23.4375 19.0781 23.5938 18.9844 23.625C18.8906 23.625 18.8594 23.6719 18.8906 23.7656C18.6094 23.7031 18.4219 23.75 18.3281 23.9062C18.2656 24.0625 18.1562 24.1875 18 24.2812C17.7812 24.5312 17.6875 24.6719 17.7188 24.7031C17.75 24.7344 17.7656 24.7812 17.7656 24.8438C17.5781 24.8125 17.4844 24.8594 17.4844 24.9844C17.5156 25.0781 17.4219 25.125 17.2031 25.125C17.1406 25.2812 17.1406 25.4062 17.2031 25.5C17.2656 25.5938 17.2812 25.7344 17.25 25.9219C17.2812 26.1406 17.2031 26.3438 17.0156 26.5312C16.8281 26.6875 16.75 26.9531 16.7812 27.3281C17.0938 27.1719 17.3438 27 17.5312 26.8125C17.75 26.5938 17.9531 26.3594 18.1406 26.1094C18.2656 26.1719 18.3594 26.1562 18.4219 26.0625C18.5156 25.9375 18.6719 25.9062 18.8906 25.9688C19.0156 25.6562 19.0781 25.5312 19.0781 25.5938C19.1094 25.625 19.1719 25.6094 19.2656 25.5469C19.2656 25.2344 19.3125 25.0469 19.4062 24.9844C19.5 24.8906 19.5625 24.7656 19.5938 24.6094C19.8438 24.6719 20.0156 24.6094 20.1094 24.4219C20.2344 24.2344 20.375 24.0625 20.5312 23.9062C20.7812 23.5625 20.9062 23.2031 20.9062 22.8281C20.9062 22.4531 20.7812 22.2344 20.5312 22.1719L20.5781 22.4531ZM20.7656 24.75C20.4219 24.8125 20.2344 24.8438 20.2031 24.8438C20.0781 25.125 19.9688 25.2812 19.875 25.3125C19.7812 25.3125 19.7031 25.3438 19.6406 25.4062C19.6094 25.5938 19.5625 25.7188 19.5 25.7812C19.4375 25.8125 19.375 25.8438 19.3125 25.875C19.0625 26.125 18.9375 26.2188 18.9375 26.1562C18.9688 26.0625 18.9219 26.0312 18.7969 26.0625C18.8906 26.3438 18.9531 26.4688 18.9844 26.4375C19.0469 26.4062 19.1562 26.4219 19.3125 26.4844C19.375 26.3281 19.4688 26.1875 19.5938 26.0625C19.7188 25.9062 19.8594 25.8438 20.0156 25.875C20.0781 25.6562 20.2188 25.5156 20.4375 25.4531C20.6875 25.3594 20.7969 25.125 20.7656 24.75ZM28.6406 35.1562C28.5781 35.25 28.4688 35.3125 28.3125 35.3438C28.1562 35.3438 28.0938 35.4219 28.125 35.5781C28.2812 35.4531 28.4062 35.3906 28.5 35.3906C28.625 35.3906 28.6719 35.3125 28.6406 35.1562ZM23.9531 30.5625C23.6094 30.4375 23.4219 30.5156 23.3906 30.7969C23.6719 30.7969 23.8594 30.7188 23.9531 30.5625ZM31.6875 38.3438C31.5 38.1875 31.3438 38.1875 31.2188 38.3438C31.0938 38.5 30.9688 38.6719 30.8438 38.8594C31.125 38.7969 31.2969 38.7344 31.3594 38.6719L31.6875 38.3438ZM34.0312 39.9844C33.9375 39.5469 33.8281 39.2812 33.7031 39.1875C33.5781 39.0938 33.5469 38.9375 33.6094 38.7188C33.4844 38.75 33.3906 38.7969 33.3281 38.8594C33.2969 38.9219 33.25 38.9844 33.1875 39.0469C33.125 38.8281 33.1094 38.6719 33.1406 38.5781C33.1719 38.4844 33.2031 38.4062 33.2344 38.3438C32.8281 38.25 32.5312 38.3125 32.3438 38.5312C32.1562 38.7188 31.8906 38.7812 31.5469 38.7188C31.5469 39.125 31.5625 39.3125 31.5938 39.2812C31.6562 39.25 31.7344 39.25 31.8281 39.2812C32.2031 39.1562 32.375 39.0781 32.3438 39.0469C32.3125 39.0156 32.2969 38.9531 32.2969 38.8594C32.3906 39.1719 32.3906 39.3594 32.2969 39.4219C32.2344 39.4531 32.1719 39.4844 32.1094 39.5156C31.9844 39.4844 31.8594 39.4688 31.7344 39.4688C31.6406 39.4688 31.5938 39.5156 31.5938 39.6094C31.6875 39.7344 31.6562 39.8594 31.5 39.9844C31.3438 40.0781 31.1875 40.0312 31.0312 39.8438C30.9375 39.6562 30.9844 39.5781 31.1719 39.6094C31.3594 39.6406 31.4844 39.625 31.5469 39.5625C31.2969 39.4688 31.0781 39.4375 30.8906 39.4688C30.8906 39.6875 30.8906 39.8438 30.8906 39.9375C30.9219 40.0312 31 40.125 31.125 40.2188C30.9688 40.3125 30.8281 40.3906 30.7031 40.4531C30.6094 40.5156 30.4844 40.5625 30.3281 40.5938C30.2656 40.6875 30.2344 40.7969 30.2344 40.9219C30.2344 41.0469 30.2656 41.1406 30.3281 41.2031C31.5469 41.1094 32.6406 41.0625 33.6094 41.0625C33.5469 40.75 33.5156 40.5156 33.5156 40.3594C33.5156 40.2031 33.5625 40.0781 33.6562 39.9844H34.0312ZM20.8125 27.8438C20.7188 27.625 20.7031 27.4219 20.7656 27.2344C20.8281 27.0469 20.8125 26.8438 20.7188 26.625C20.5938 26.6875 20.4531 26.7344 20.2969 26.7656C20.1719 26.7969 20.0938 26.8594 20.0625 26.9531C20.1875 27.0781 20.2031 27.2031 20.1094 27.3281C20.0156 27.4531 19.8906 27.4844 19.7344 27.4219C19.7656 27.5156 19.7344 27.5938 19.6406 27.6562C19.5781 27.7188 19.5781 27.8125 19.6406 27.9375C19.3906 28.0625 19.2188 28.0781 19.125 27.9844C19.0938 28.2969 19.0469 28.4375 18.9844 28.4062C18.9219 28.3438 18.8594 28.3594 18.7969 28.4531C19.2031 28.4844 19.4844 28.4844 19.6406 28.4531C19.7969 28.3906 19.9531 28.4219 20.1094 28.5469C20.0781 28.3594 20 28.2969 19.875 28.3594C19.7812 28.3906 19.7031 28.375 19.6406 28.3125C19.7969 28.1562 20.0781 28.1094 20.4844 28.1719L20.8125 27.8438ZM30.6562 39.0938C30.5 39.0625 30.3906 39.0938 30.3281 39.1875C30.2969 39.25 30.2188 39.2812 30.0938 39.2812C30.3125 39.5 30.4375 39.5469 30.4688 39.4219C30.5312 39.2969 30.5938 39.1875 30.6562 39.0938ZM20.9062 28.8281C20.7812 28.8281 20.6875 28.875 20.625 28.9688C20.5938 29.0312 20.5312 29.0781 20.4375 29.1094C20.3125 29.3281 20.2031 29.4844 20.1094 29.5781C20.0156 29.6719 19.9219 29.7656 19.8281 29.8594C20.0469 29.8594 20.1875 29.7969 20.25 29.6719C20.3438 29.5156 20.5 29.4844 20.7188 29.5781C20.9062 29.4531 20.9688 29.2031 20.9062 28.8281ZM19.6406 26.8594C19.5469 26.6719 19.4531 26.5938 19.3594 26.625C19.2969 26.625 19.2344 26.5938 19.1719 26.5312C19.1094 26.7812 19 27 18.8438 27.1875C18.7188 27.3438 18.5156 27.4219 18.2344 27.4219C18.0156 27.7031 17.7969 27.9688 17.5781 28.2188C17.3906 28.4375 17.125 28.625 16.7812 28.7812C16.75 28.9375 16.7188 29.1094 16.6875 29.2969C16.6875 29.4531 16.7031 29.5938 16.7344 29.7188C16.8906 29.6875 17.0156 29.7031 17.1094 29.7656C17.2031 29.7969 17.2812 29.7344 17.3438 29.5781C17.3438 29.3906 17.4062 29.1875 17.5312 28.9688C17.6875 28.7188 17.8906 28.5781 18.1406 28.5469C18.2031 28.4219 18.2656 28.3281 18.3281 28.2656C18.3906 28.1719 18.4375 28.0781 18.4688 27.9844C18.5312 27.8906 18.5938 27.8125 18.6562 27.75C18.75 27.6875 18.875 27.6562 19.0312 27.6562C19.0625 27.5 19.1094 27.3594 19.1719 27.2344C19.2344 27.1094 19.2656 26.9844 19.2656 26.8594H19.6406ZM20.7656 31.0781C20.7344 30.8594 20.75 30.6875 20.8125 30.5625C20.875 30.4375 20.8438 30.3438 20.7188 30.2812C20.5625 30.5312 20.375 30.7344 20.1562 30.8906C19.9688 31.0469 19.75 31.2031 19.5 31.3594C19.5312 31.5469 19.4688 31.6562 19.3125 31.6875C19.1562 31.7188 19.0781 31.8125 19.0781 31.9688C19.2344 32 19.3906 31.9844 19.5469 31.9219C19.7031 31.8594 19.8438 31.7969 19.9688 31.7344C20.3438 31.5781 20.6094 31.3594 20.7656 31.0781ZM19.8281 28.9219C19.4531 29.0781 19.2031 29.2031 19.0781 29.2969C18.9531 29.3906 18.8125 29.4219 18.6562 29.3906C18.5312 29.5469 18.3906 29.6875 18.2344 29.8125C18.1094 29.9375 17.9844 30.0625 17.8594 30.1875C17.7344 30.2812 17.5938 30.3594 17.4375 30.4219C17.2812 30.4531 17.0938 30.4062 16.875 30.2812C16.7188 30.875 16.6719 31.375 16.7344 31.7812C16.8281 32.1875 16.8906 32.6875 16.9219 33.2812C17.0469 33.2812 17.1406 33.2656 17.2031 33.2344C17.2656 33.1719 17.3125 33.1094 17.3438 33.0469C17.4062 32.9531 17.4688 32.8906 17.5312 32.8594C17.5938 32.7969 17.6875 32.7656 17.8125 32.7656C17.75 32.6094 17.8125 32.5 18 32.4375C18.1875 32.375 18.3125 32.2969 18.375 32.2031C18.125 31.9531 18 31.875 18 31.9688C18 32.0625 17.9375 32.0781 17.8125 32.0156C17.7812 31.9531 17.7188 31.9062 17.625 31.875C17.5312 31.8438 17.4531 31.7812 17.3906 31.6875C17.5469 31.0938 17.8125 30.75 18.1875 30.6562C18.4688 30.3438 18.6406 30.1406 18.7031 30.0469C18.7969 29.9531 18.9219 29.9531 19.0781 30.0469L19.2656 29.5312C19.5469 29.3438 19.6719 29.125 19.6406 28.875L19.8281 28.9219ZM18.75 31.7344C18.6562 31.7031 18.5781 31.6719 18.5156 31.6406C18.4531 31.6094 18.3594 31.6094 18.2344 31.6406C18.2656 31.7344 18.3438 31.7969 18.4688 31.8281C18.5938 31.8281 18.6875 31.7969 18.75 31.7344ZM18.5625 32.7188C18.4062 32.7812 18.2656 32.8125 18.1406 32.8125C18.0469 32.7812 17.9531 32.7969 17.8594 32.8594C17.9219 32.9844 18 33.0156 18.0938 32.9531C18.2188 32.8906 18.3594 32.875 18.5156 32.9062L18.5625 32.7188ZM20.9531 35.2969C20.7344 35.5156 20.6094 35.6562 20.5781 35.7188C20.5469 35.75 20.5781 35.7812 20.6719 35.8125C20.7344 35.7188 20.8125 35.6562 20.9062 35.625C21 35.5625 21.0156 35.4531 20.9531 35.2969ZM20.9531 34.4062C20.8281 34.3438 20.6406 34.3594 20.3906 34.4531C20.1406 34.5156 19.9219 34.5 19.7344 34.4062C20.1094 34.1875 20.4688 34.0781 20.8125 34.0781C20.875 33.9219 20.8906 33.7344 20.8594 33.5156C20.8594 33.2969 20.875 33.0625 20.9062 32.8125C20.6562 32.9375 20.5156 32.9844 20.4844 32.9531C20.4844 32.9219 20.4375 32.8906 20.3438 32.8594C20.2812 33.1406 20.1875 33.2969 20.0625 33.3281C19.9375 33.2344 19.8281 33.2031 19.7344 33.2344C19.6719 33.2656 19.5938 33.2344 19.5 33.1406C19.5312 32.9844 19.625 32.9062 19.7812 32.9062C19.9375 32.9062 20.0781 32.875 20.2031 32.8125C20.1094 32.6562 20.1406 32.5156 20.2969 32.3906C20.4531 32.2344 20.4688 32.0625 20.3438 31.875C20.0938 32.0312 19.875 32.1719 19.6875 32.2969C19.5312 32.4219 19.3125 32.5156 19.0312 32.5781C18.9062 32.8906 18.6406 33.0938 18.2344 33.1875C17.9219 33.4062 17.7656 33.5938 17.7656 33.75C17.7656 33.875 17.7031 33.9688 17.5781 34.0312C17.3281 34.2188 17.2031 34.3594 17.2031 34.4531C17.2344 34.5469 17.1875 34.5938 17.0625 34.5938C17 34.7812 16.9844 34.9531 17.0156 35.1094C17.0469 35.2656 17.0781 35.4062 17.1094 35.5312C17.2656 35.5 17.4219 35.4062 17.5781 35.25C17.7344 35.0625 17.875 34.875 18 34.6875C18.0625 34.9062 18.0469 35.0312 17.9531 35.0625C17.8906 35.0625 17.8281 35.0938 17.7656 35.1562C17.7031 35.3438 17.6562 35.5312 17.625 35.7188C17.625 35.9062 17.7031 36.0312 17.8594 36.0938C18.0156 35.875 18.1094 35.7812 18.1406 35.8125C18.2031 35.8125 18.2656 35.7656 18.3281 35.6719C18.1406 35.8906 17.9688 36.1094 17.8125 36.3281C17.6875 36.5156 17.5 36.7031 17.25 36.8906C17.375 37.1719 17.3594 37.375 17.2031 37.5C17.2656 37.5625 17.2969 37.6562 17.2969 37.7812C17.3281 37.875 17.3594 37.9688 17.3906 38.0625C17.6406 37.9062 17.875 37.7812 18.0938 37.6875C18.3125 37.5625 18.5469 37.5469 18.7969 37.6406C18.5781 37.4844 18.4531 37.4375 18.4219 37.5C18.3906 37.5312 18.3125 37.5312 18.1875 37.5C18.2812 37.2812 18.5 37.0938 18.8438 36.9375C19.2188 36.75 19.4531 36.6562 19.5469 36.6562C19.6406 36.625 19.8125 36.625 20.0625 36.6562C20.0625 36.4375 20.1719 36.3438 20.3906 36.375C20.6406 36.375 20.7656 36.2656 20.7656 36.0469C20.4531 36.1406 20.2188 36.2344 20.0625 36.3281C20.0938 35.8281 20.1562 35.5312 20.25 35.4375C20.3438 35.3438 20.4375 35.2656 20.5312 35.2031C20.625 35.1094 20.7188 35.0156 20.8125 34.9219C20.9062 34.7969 20.9531 34.625 20.9531 34.4062ZM25.7812 41.625C25.7188 41.5625 25.6094 41.5312 25.4531 41.5312C25.3281 41.5 25.2656 41.5312 25.2656 41.625H25.7812ZM19.6406 36.7969C19.4531 36.8594 19.3281 36.9219 19.2656 36.9844C19.2031 37.0469 19.2031 37.1094 19.2656 37.1719C19.2969 37.0469 19.3594 37 19.4531 37.0312C19.5781 37.0312 19.6406 36.9531 19.6406 36.7969ZM24 41.6719C23.8438 41.5469 23.625 41.4844 23.3438 41.4844C23.0625 41.4844 22.7969 41.4219 22.5469 41.2969C22.4844 41.0781 22.375 40.9219 22.2188 40.8281C22.0938 40.7344 22.0156 40.5781 21.9844 40.3594C21.6094 40.1719 21.375 40.125 21.2812 40.2188C21.2188 40.2812 21.0938 40.2812 20.9062 40.2188C20.6875 40.4375 20.5 40.6094 20.3438 40.7344C20.2188 40.8594 20.125 41.0469 20.0625 41.2969C20.6562 41.3281 21.2656 41.4062 21.8906 41.5312C22.5469 41.6562 23.25 41.7031 24 41.6719ZM21.4688 39.8906C21.25 39.5156 21.0938 39.3438 21 39.375C20.9375 39.4062 20.875 39.4688 20.8125 39.5625C20.75 39.625 20.6719 39.6875 20.5781 39.75C20.5156 39.8125 20.4062 39.8438 20.25 39.8438C20.4375 40.0312 20.5469 40.1406 20.5781 40.1719C20.6406 40.2031 20.7031 40.2188 20.7656 40.2188C20.7656 40.0625 20.8438 39.9844 21 39.9844C21.1562 39.9531 21.3125 39.9219 21.4688 39.8906ZM21.0469 36.7969C20.4219 37.0156 19.9219 37.2656 19.5469 37.5469C19.1719 37.8281 18.75 38.125 18.2812 38.4375C18 38.7188 17.8281 38.8906 17.7656 38.9531C17.7344 38.9844 17.7188 39.0625 17.7188 39.1875C17.5312 39.2812 17.375 39.4219 17.25 39.6094C17.1562 39.7656 17.0625 39.9375 16.9688 40.125C16.875 40.3125 16.7812 40.5 16.6875 40.6875C16.5938 40.875 16.4688 41.0312 16.3125 41.1562C16.4062 41.2188 16.5469 41.2656 16.7344 41.2969C16.9219 41.3281 17.0469 41.2656 17.1094 41.1094C17.2031 41.2031 17.3281 41.2656 17.4844 41.2969C17.6406 41.3281 17.8125 41.3281 18 41.2969C18.1875 41.2656 18.3438 41.2031 18.4688 41.1094C18.625 41.0156 18.7344 40.9219 18.7969 40.8281C18.8594 40.8594 18.9219 40.9219 18.9844 41.0156C19.0469 41.0781 19.1406 41.0938 19.2656 41.0625C19.2656 40.8438 19.2031 40.6406 19.0781 40.4531C19.1719 40.3906 19.2188 40.3125 19.2188 40.2188C19.25 40.0938 19.3594 40.0469 19.5469 40.0781C19.5469 40.2344 19.6094 40.3125 19.7344 40.3125C19.8594 40.3125 19.9375 40.375 19.9688 40.5L19.5 40.7812H20.0156C20.0156 40.625 20.0469 40.5156 20.1094 40.4531C20.2031 40.3906 20.2812 40.3125 20.3438 40.2188C20.1562 39.9375 20.1094 39.7969 20.2031 39.7969C20.2969 39.7969 20.3281 39.7344 20.2969 39.6094C20.5156 39.3906 20.6094 39.25 20.5781 39.1875C20.5469 39.125 20.5312 39.0469 20.5312 38.9531C20.6875 38.8281 20.7812 38.75 20.8125 38.7188C20.875 38.6875 20.9219 38.5938 20.9531 38.4375C20.7969 38.3438 20.6562 38.3281 20.5312 38.3906C20.4375 38.4531 20.3125 38.5 20.1562 38.5312C19.9688 38.75 19.8281 38.9219 19.7344 39.0469C19.6406 39.1719 19.5156 39.2812 19.3594 39.375C19.1719 39.375 19.0156 39.4219 18.8906 39.5156C18.7969 39.5781 18.7031 39.6562 18.6094 39.75C18.5469 39.8438 18.4688 39.9375 18.375 40.0312C18.2812 40.0938 18.1562 40.1094 18 40.0781C17.6875 40.3281 17.5 40.3906 17.4375 40.2656C17.375 40.1406 17.3125 40.0781 17.25 40.0781C17.5625 39.6094 18.0625 39.2656 18.75 39.0469C18.8125 38.8594 18.9219 38.7344 19.0781 38.6719C19.2344 38.6094 19.3281 38.5312 19.3594 38.4375C19.4219 38.3438 19.5625 38.2188 19.7812 38.0625C20 37.875 20.1875 37.75 20.3438 37.6875C20.5 37.4688 20.6562 37.3281 20.8125 37.2656C21 37.2031 21.0781 37.0469 21.0469 36.7969ZM20.4375 8.71875C20.375 8.90625 20.25 9.03125 20.0625 9.09375C19.9062 9.125 19.7969 9.21875 19.7344 9.375C19.5781 9.28125 19.5938 9.20312 19.7812 9.14062C19.9688 9.04688 20.0625 8.92188 20.0625 8.76562L20.4375 8.71875ZM19.3125 14.5312C19.25 14.5938 19.1562 14.6406 19.0312 14.6719C18.9062 14.6719 18.8125 14.7031 18.75 14.7656C19 14.8906 19.1406 14.9219 19.1719 14.8594C19.2031 14.7656 19.25 14.6562 19.3125 14.5312ZM27.9844 29.1562C27.9219 29.25 27.8438 29.2812 27.75 29.25C27.6875 29.2188 27.5781 29.2344 27.4219 29.2969C27.4219 29.1719 27.5 29.1094 27.6562 29.1094C27.8125 29.1094 27.9219 29.125 27.9844 29.1562ZM27.2812 29.1562C27.4375 29.2188 27.4531 29.3281 27.3281 29.4844C27.2344 29.6094 27.1406 29.6562 27.0469 29.625C26.9844 29.5 26.9844 29.4062 27.0469 29.3438C27.1406 29.2812 27.2188 29.2188 27.2812 29.1562ZM27.8438 30.8438C27.7812 30.9375 27.6875 31.0312 27.5625 31.125C27.4375 31.2188 27.3281 31.2031 27.2344 31.0781C27.2969 30.9844 27.3906 30.9062 27.5156 30.8438C27.6406 30.7812 27.75 30.7812 27.8438 30.8438ZM18.2344 25.3594C18.1094 25.3906 18.0156 25.4375 17.9531 25.5C17.8906 25.5312 17.7812 25.5469 17.625 25.5469C17.6875 25.4844 17.7656 25.4375 17.8594 25.4062C17.9531 25.3438 18.0156 25.25 18.0469 25.125L18.2344 25.3594ZM19.5938 33.7969C19.2812 33.8594 19.0938 33.9688 19.0312 34.125C18.9688 34.25 18.8594 34.2656 18.7031 34.1719C18.7344 33.9844 18.7969 33.8438 18.8906 33.75C19.0156 33.6562 19.1094 33.5312 19.1719 33.375C19.3281 33.4062 19.4688 33.5469 19.5938 33.7969ZM19.875 34.6875C19.625 34.7188 19.4375 34.75 19.3125 34.7812C19.2188 34.7812 19.1406 34.7969 19.0781 34.8281C19.1094 34.6406 19.2656 34.5469 19.5469 34.5469L19.875 34.6875ZM19.5 35.1094C19.4375 35.2656 19.2969 35.3438 19.0781 35.3438C18.8906 35.3125 18.7812 35.375 18.75 35.5312C18.4062 35.3125 18.2188 35.2344 18.1875 35.2969C18.1875 35.3594 18.1562 35.375 18.0938 35.3438C18.3438 35.2188 18.4844 35.1562 18.5156 35.1562C18.5781 35.125 18.6094 35.0625 18.6094 34.9688C18.7344 35.0938 18.875 35.125 19.0312 35.0625C19.1875 35 19.3438 35.0156 19.5 35.1094ZM19.9688 36.3281C19.8438 36.4844 19.7344 36.5312 19.6406 36.4688C19.5469 36.4062 19.4219 36.4219 19.2656 36.5156C19.3594 36.4219 19.4062 36.3438 19.4062 36.2812C19.4062 36.2188 19.4688 36.1562 19.5938 36.0938L19.9688 36.3281Z" fill="white"/>
<defs>
<linearGradient id="paint0_linear_33_55" x1="25" y1="0" x2="25" y2="50" gradientUnits="userSpaceOnUse">
<stop stop-color="#420547"/>
<stop offset="1" stop-color="#130114"/>
</linearGradient>
</defs>
</svg>
