<svg width="290" height="40" viewBox="0 0 290 40" fill="none" xmlns="http://www.w3.org/2000/svg">
<path d="M7.992 5.73602V39H0.119995V5.73602H7.992ZM27.096 5.73602L16.488 20.664L27.96 39H18.84L8.232 21.24L18.792 5.73602H27.096Z" fill="#111111"/>
<path d="M50.1851 31.608C50.1851 32.568 50.3131 33.272 50.5691 33.72C50.8571 34.168 51.3051 34.504 51.9131 34.728L50.3291 39.672C48.7611 39.544 47.4811 39.208 46.4891 38.664C45.4971 38.088 44.7291 37.192 44.1851 35.976C42.5211 38.536 39.9611 39.816 36.5051 39.816C33.9771 39.816 31.9611 39.08 30.4571 37.608C28.9531 36.136 28.2011 34.216 28.2011 31.848C28.2011 29.064 29.2251 26.936 31.2731 25.464C33.3211 23.992 36.2811 23.256 40.1531 23.256H42.7451V22.152C42.7451 20.648 42.4251 19.624 41.7851 19.08C41.1451 18.504 40.0251 18.216 38.4251 18.216C37.5931 18.216 36.5851 18.344 35.4011 18.6C34.2171 18.824 33.0011 19.144 31.7531 19.56L30.0251 14.568C31.6251 13.96 33.2571 13.496 34.9211 13.176C36.6171 12.856 38.1851 12.696 39.6251 12.696C43.2731 12.696 45.9451 13.448 47.6411 14.952C49.3371 16.456 50.1851 18.712 50.1851 21.72V31.608ZM38.7131 34.392C40.4411 34.392 41.7851 33.576 42.7451 31.944V27.432H40.8731C39.1451 27.432 37.8491 27.736 36.9851 28.344C36.1531 28.952 35.7371 29.896 35.7371 31.176C35.7371 32.2 35.9931 33 36.5051 33.576C37.0491 34.12 37.7851 34.392 38.7131 34.392Z" fill="#111111"/>
<path d="M70.05 12.792C70.978 12.792 71.826 12.904 72.594 13.128L71.394 20.472C70.434 20.248 69.666 20.136 69.09 20.136C67.586 20.136 66.434 20.664 65.634 21.72C64.866 22.744 64.258 24.296 63.81 26.376V39H56.226V13.512H62.85L63.474 18.456C64.05 16.696 64.914 15.32 66.066 14.328C67.25 13.304 68.578 12.792 70.05 12.792Z" fill="#111111"/>
<path d="M83.0756 13.512V39H75.4916V13.512H83.0756ZM79.2356 0.0720215C80.5476 0.0720215 81.6196 0.488022 82.4516 1.32002C83.3156 2.12002 83.7476 3.14402 83.7476 4.39202C83.7476 5.64002 83.3156 6.68002 82.4516 7.51202C81.6196 8.31202 80.5476 8.71202 79.2356 8.71202C77.9236 8.71202 76.8516 8.31202 76.0196 7.51202C75.1876 6.68002 74.7716 5.64002 74.7716 4.39202C74.7716 3.14402 75.1876 2.12002 76.0196 1.32002C76.8516 0.488022 77.9236 0.0720215 79.2356 0.0720215Z" fill="#111111"/>
<path d="M103.966 12.696C106.174 12.696 107.902 13.368 109.15 14.712C110.398 16.056 111.022 17.944 111.022 20.376V39H103.438V21.672C103.438 20.392 103.23 19.512 102.814 19.032C102.43 18.52 101.839 18.264 101.038 18.264C99.5025 18.264 98.0305 19.368 96.6225 21.576V39H89.0385V13.512H95.6625L96.1905 16.536C97.2785 15.256 98.4465 14.296 99.6945 13.656C100.974 13.016 102.398 12.696 103.966 12.696Z" fill="#111111"/>
<path d="M142.676 4.92002C146.964 4.92002 150.66 6.28002 153.764 9.00002L149.78 13.176C148.596 12.28 147.492 11.64 146.468 11.256C145.476 10.84 144.324 10.632 143.012 10.632C140.548 10.632 138.58 11.608 137.108 13.56C135.636 15.48 134.9 18.408 134.9 22.344C134.9 26.6 135.46 29.624 136.58 31.416C137.7 33.176 139.444 34.056 141.812 34.056C143.476 34.056 144.98 33.688 146.324 32.952V25.416H142.004L141.236 19.848H153.956V36.312C152.228 37.432 150.324 38.296 148.244 38.904C146.164 39.512 144.084 39.816 142.004 39.816C136.948 39.816 133.14 38.344 130.58 35.4C128.02 32.424 126.74 28.072 126.74 22.344C126.74 18.696 127.428 15.56 128.804 12.936C130.212 10.312 132.116 8.32802 134.516 6.98402C136.948 5.60802 139.668 4.92002 142.676 4.92002Z" fill="#111111"/>
<path d="M179.326 31.608C179.326 32.568 179.454 33.272 179.71 33.72C179.998 34.168 180.446 34.504 181.054 34.728L179.47 39.672C177.902 39.544 176.622 39.208 175.63 38.664C174.638 38.088 173.87 37.192 173.326 35.976C171.662 38.536 169.102 39.816 165.646 39.816C163.118 39.816 161.102 39.08 159.598 37.608C158.094 36.136 157.342 34.216 157.342 31.848C157.342 29.064 158.366 26.936 160.414 25.464C162.462 23.992 165.422 23.256 169.294 23.256H171.886V22.152C171.886 20.648 171.566 19.624 170.926 19.08C170.286 18.504 169.166 18.216 167.566 18.216C166.734 18.216 165.726 18.344 164.542 18.6C163.358 18.824 162.142 19.144 160.894 19.56L159.166 14.568C160.766 13.96 162.398 13.496 164.062 13.176C165.758 12.856 167.326 12.696 168.766 12.696C172.414 12.696 175.086 13.448 176.782 14.952C178.478 16.456 179.326 18.712 179.326 21.72V31.608ZM167.854 34.392C169.582 34.392 170.926 33.576 171.886 31.944V27.432H170.014C168.286 27.432 166.99 27.736 166.126 28.344C165.294 28.952 164.878 29.896 164.878 31.176C164.878 32.2 165.134 33 165.646 33.576C166.19 34.12 166.926 34.392 167.854 34.392Z" fill="#111111"/>
<path d="M199.191 12.792C200.119 12.792 200.967 12.904 201.735 13.128L200.535 20.472C199.575 20.248 198.807 20.136 198.231 20.136C196.727 20.136 195.575 20.664 194.775 21.72C194.007 22.744 193.399 24.296 192.951 26.376V39H185.367V13.512H191.991L192.615 18.456C193.191 16.696 194.055 15.32 195.207 14.328C196.391 13.304 197.719 12.792 199.191 12.792Z" fill="#111111"/>
<path d="M218.456 12.792C219.384 12.792 220.232 12.904 221 13.128L219.8 20.472C218.84 20.248 218.072 20.136 217.496 20.136C215.992 20.136 214.84 20.664 214.04 21.72C213.272 22.744 212.664 24.296 212.216 26.376V39H204.632V13.512H211.256L211.88 18.456C212.456 16.696 213.32 15.32 214.472 14.328C215.656 13.304 216.984 12.792 218.456 12.792Z" fill="#111111"/>
<path d="M231.482 13.512V39H223.898V13.512H231.482ZM227.642 0.0720215C228.954 0.0720215 230.026 0.488022 230.858 1.32002C231.722 2.12002 232.154 3.14402 232.154 4.39202C232.154 5.64002 231.722 6.68002 230.858 7.51202C230.026 8.31202 228.954 8.71202 227.642 8.71202C226.33 8.71202 225.258 8.31202 224.426 7.51202C223.594 6.68002 223.178 5.64002 223.178 4.39202C223.178 3.14402 223.594 2.12002 224.426 1.32002C225.258 0.488022 226.33 0.0720215 227.642 0.0720215Z" fill="#111111"/>
<path d="M260.293 3.38402V39H253.573L253.189 36.024C251.397 38.552 248.981 39.816 245.941 39.816C242.773 39.816 240.357 38.6 238.693 36.168C237.061 33.736 236.245 30.408 236.245 26.184C236.245 23.592 236.677 21.272 237.541 19.224C238.405 17.176 239.621 15.576 241.189 14.424C242.789 13.272 244.613 12.696 246.661 12.696C249.093 12.696 251.109 13.496 252.709 15.096V2.56802L260.293 3.38402ZM248.293 34.248C250.053 34.248 251.525 33.288 252.709 31.368V20.376C252.101 19.64 251.477 19.096 250.837 18.744C250.229 18.392 249.525 18.216 248.725 18.216C247.317 18.216 246.197 18.872 245.365 20.184C244.533 21.496 244.117 23.512 244.117 26.232C244.117 29.208 244.469 31.288 245.173 32.472C245.909 33.656 246.949 34.248 248.293 34.248Z" fill="#111111"/>
<path d="M277.266 12.696C281.17 12.696 284.226 13.896 286.434 16.296C288.642 18.664 289.746 21.992 289.746 26.28C289.746 29 289.234 31.384 288.21 33.432C287.218 35.448 285.778 37.016 283.89 38.136C282.034 39.256 279.826 39.816 277.266 39.816C273.394 39.816 270.338 38.632 268.098 36.264C265.89 33.864 264.786 30.52 264.786 26.232C264.786 23.512 265.282 21.144 266.274 19.128C267.298 17.08 268.738 15.496 270.594 14.376C272.482 13.256 274.706 12.696 277.266 12.696ZM277.266 18.264C275.73 18.264 274.578 18.92 273.81 20.232C273.042 21.512 272.658 23.512 272.658 26.232C272.658 29.016 273.026 31.048 273.762 32.328C274.53 33.608 275.698 34.248 277.266 34.248C278.802 34.248 279.954 33.608 280.722 32.328C281.49 31.016 281.874 29 281.874 26.28C281.874 23.496 281.49 21.464 280.722 20.184C279.986 18.904 278.834 18.264 277.266 18.264Z" fill="#111111"/>
</svg>
