<svg width="24" height="24" viewBox="0 0 48 48" fill="none" xmlns="http://www.w3.org/2000/svg">
<path d="M37.656 10.152C34.032 6.52801 29.232 4.53601 24.096 4.53601C13.536 4.53601 4.94399 13.128 4.94399 23.688C4.94399 27.072 5.83199 30.36 7.51199 33.264L4.79999 43.2L14.952 40.536C17.76 42.072 20.904 42.864 24.096 42.864C34.656 42.864 43.248 34.272 43.248 23.712C43.272 18.6 41.28 13.776 37.656 10.152ZM24.12 39.624C21.264 39.624 18.456 38.856 16.008 37.416L15.432 37.08L9.40799 38.64L11.016 32.76L10.632 32.16C9.04799 29.616 8.20799 26.688 8.20799 23.688C8.20799 14.904 15.36 7.77601 24.144 7.77601C28.392 7.77601 32.4 9.43201 35.4 12.456C38.4 15.456 40.056 19.464 40.056 23.712C40.032 32.496 32.904 39.624 24.12 39.624ZM32.856 27.72C32.376 27.48 30.024 26.328 29.592 26.16C29.16 25.992 28.824 25.92 28.512 26.4C28.2 26.88 27.264 27.96 27 28.272C26.712 28.584 26.448 28.632 25.968 28.392C25.488 28.152 23.952 27.648 22.128 26.016C20.688 24.744 19.728 23.184 19.44 22.704C19.152 22.224 19.416 21.96 19.656 21.72C19.872 21.504 20.136 21.168 20.376 20.88C20.616 20.592 20.688 20.4 20.856 20.088C21.024 19.776 20.928 19.488 20.808 19.248C20.688 19.008 19.728 16.656 19.344 15.696C18.936 14.76 18.552 14.88 18.264 14.856C17.976 14.856 17.664 14.856 17.328 14.856C17.016 14.856 16.488 14.976 16.056 15.456C15.624 15.936 14.376 17.088 14.376 19.44C14.376 21.792 16.08 24.072 16.32 24.384C16.56 24.696 19.704 29.544 24.504 31.608C25.656 32.112 26.544 32.4 27.24 32.616C28.392 32.976 29.424 32.928 30.264 32.808C31.176 32.664 33.096 31.656 33.504 30.528C33.912 29.4 33.912 28.44 33.792 28.248C33.648 28.056 33.336 27.936 32.856 27.72Z" fill="url(#paint0_linear_27_89)"/>
<defs>
<linearGradient id="paint0_linear_27_89" x1="24.0241" y1="4.53601" x2="24.0241" y2="43.2" gradientUnits="userSpaceOnUse">
<stop stop-color="#9E4CA5"/>
<stop offset="1" stop-color="#DAA3D4"/>
</linearGradient>
</defs>
</svg>
